<svg width="40" height="40" fill="none" xmlns="http://www.w3.org/2000/svg"><path d="M34.5778 12.2058H22.1841c6.908-3.4442 7.4667-5.6222 7.2127-6.8378-.5587-1.9754-2.8444-3.495-4.9778-2.6845-2.7936 1.0636-3.5555 5.217-4.3174 8.2054-.9651-3.039-1.8794-6.8885-4.0635-8.8639-.6095-.5571-1.5238-1.1143-2.8952-1.013-2.0318.2026-4.927 2.6845-3.708 5.4703 1.1175 2.6845 4.8254 4.4066 7.3143 5.7742H5.4222c-.8127 0-1.4222.6584-1.4222 1.4182v5.6728c0 .8105.6603 1.4183 1.4222 1.4183h.1524V39H34.527V20.7658h.0508c.8127 0 1.4222-.6585 1.4222-1.4183v-5.6728c0-.8104-.6603-1.4689-1.4222-1.4689zm-9.3461-8.256c1.0667-.152 2.4889.6584 2.6413 1.6208.2032 1.3675-1.6762 2.6338-2.5397 3.191-1.2698.861-2.4889 1.3169-3.6571 2.026.4063-1.874 1.2698-6.534 3.5555-6.8378zM13.7524 8.9135c-1.1175-.7598-3.2508-2.2286-3.2-3.9.0508-1.8235 2.8952-3.2924 4.419-1.9248 1.9302 1.6715 2.8445 5.5716 3.5556 8.3067-1.6254-.8104-3.1492-1.4182-4.7746-2.4819zm2.9968 28.567H7.0476V20.7658h9.7016v16.7147zm0-18.2343H5.5238v-5.5209h11.2254v5.5209zm5.0794 18.2343h-3.6064V13.7253h3.6064v23.7552zm11.1746 0h-9.6508V20.7658h9.7016v16.7147h-.0508zm1.473-18.2343H23.3524v-5.5209h11.1238v5.5209z" fill="#81B3D2"/></svg>