<svg width="40" height="40" fill="none" xmlns="http://www.w3.org/2000/svg"><path d="M15.4015 35.2194h8.3534V23.0613h-8.3534v12.1581zm6.8393-1.4753h-5.3253v-9.2076h5.2731v9.2076h.0522z" fill="#81B3D2"/><path d="M37.9036 22.0431L39 20.9748l-5.1687-5.0362V2.2035h-7.2048v6.715L19.4739 2 0 21.0257l1.0964 1.0683 4.0723-3.968v19.2292H3.1325v1.4753H36.494v-1.4753h-2.6627v-19.28l4.0723 3.9679zm-9.763-18.3135h4.1245v10.7337l-4.1245-4.0187v-6.715zm4.1767 33.5747H6.7349V16.5999L19.474 4.1366l12.7912 12.4633v20.7044h.0522z" fill="#81B3D2"/><path d="M15.5582 15.8369c0 2.1874 1.8273 3.9679 4.0201 3.9679 2.245 0 4.0723-1.7805 4.0723-3.9679 0-2.1875-1.8273-3.9171-4.0723-3.9171s-4.0201 1.7296-4.0201 3.9171zm4.0201-2.5436c1.4096 0 2.6105 1.1192 2.6105 2.5436 0 1.3735-1.1486 2.5435-2.6105 2.5435-1.4096 0-2.6104-1.1192-2.6104-2.5435 0-1.3736 1.2008-2.5436 2.6104-2.5436zM10.3895 23.0613H8.8232v1.9839h1.5663v-1.9839zM13.4698 23.0613h-1.5662v1.9839h1.5662v-1.9839zM10.3895 26.1128H8.8232v1.984h1.5663v-1.984zM13.4698 26.1128h-1.5662v1.984h1.5662v-1.984zM27.0443 23.0613H25.478v1.9839h1.5663v-1.9839zM30.1769 23.0613h-1.5663v1.9839h1.5663v-1.9839zM27.0443 26.1128H25.478v1.984h1.5663v-1.984zM30.1769 26.1128h-1.5663v1.984h1.5663v-1.984z" fill="#81B3D2"/></svg>