<svg width="40" height="40" fill="none" xmlns="http://www.w3.org/2000/svg"><path d="M37.7428 26.3004H2.2572C.9974 26.3004 0 27.3135 0 28.4785v1.7729c0 1.165.9974 2.1274 2.2572 2.1274h.525v.5065c0 2.7859 2.3622 5.0147 5.1968 5.0147h24.042c2.8871 0 5.1968-2.2794 5.1968-5.0147v-.5065h.525c1.2073 0 2.2572-.9624 2.2572-2.1781v-1.7729c0-1.1143-.9974-2.1274-2.2572-2.1274zm-2.0473 6.5849c0 1.9248-1.6273 3.4951-3.622 3.4951H7.9265c-1.9947 0-3.622-1.5703-3.622-3.4951v-.5065h31.391v.5065zm2.7297-2.6846c0 .3546-.315.6585-.6824.6585H2.2572c-.3674 0-.6824-.3039-.6824-.6585v-1.7729c0-.3039.315-.6078.6824-.6078h35.5381c.3674 0 .6824.3039.6824.6585v1.7222h-.0525zM8.504 22.1973l2.8346 2.0261 2.8871-2.0261 2.8872 2.0261L20 22.1973l2.8347 2.0261 2.8871-2.0261 2.8871 2.0261 2.8872-2.0261 2.8871 2.0261 3.3071-2.3807-.8924-1.2157-2.4147 1.6716-2.8871-2.0261-2.8872 2.0261-2.8871-2.0261-2.8871 2.0261L20 20.2725l-2.8871 2.0261-2.8872-2.0261-2.8871 2.0261-2.8346-2.0261-2.8872 2.0261-2.4147-1.6716-.9449 1.2157 3.3596 2.3807 2.8872-2.0261zM37.2179 18.7531c0-.3039.0525-1.317 0-1.5196C36.8504 9.3316 29.2913 3 20 3S3.0971 9.3316 2.7297 17.2335v1.5196h34.4882zM20 4.5196c8.399 0 15.3281 5.6731 15.6431 12.7139H4.3045C4.6719 10.1927 11.601 4.5195 20 4.5195z" fill="#81B3D2"/><path d="M20 11.6111c.5798 0 1.0499-.4536 1.0499-1.0131 0-.5595-.4701-1.013-1.0499-1.013-.5798 0-1.0499.4535-1.0499 1.013 0 .5595.4701 1.0131 1.0499 1.0131zM15.8005 9.1287c.5798 0 1.0499-.4536 1.0499-1.0131 0-.5595-.4701-1.013-1.0499-1.013-.5798 0-1.0499.4535-1.0499 1.013 0 .5595.4701 1.013 1.0499 1.013zM24.1995 9.1287c.5798 0 1.0498-.4536 1.0498-1.0131 0-.5595-.47-1.013-1.0498-1.013-.5799 0-1.0499.4535-1.0499 1.013 0 .5595.47 1.013 1.0499 1.013z" fill="#81B3D2"/></svg>