<svg xmlns="http://www.w3.org/2000/svg">
  <symbol viewBox="0 0 40 40" id="icon-house">
    <path d="M15.4015 35.2194h8.3534V23.0613h-8.3534v12.1581zm6.8393-1.4753h-5.3253v-9.2076h5.2731v9.2076h.0522z" fill="#81B3D2"/>
    <path d="M37.9036 22.0431L39 20.9748l-5.1687-5.0362V2.2035h-7.2048v6.715L19.4739 2 0 21.0257l1.0964 1.0683 4.0723-3.968v19.2292H3.1325v1.4753H36.494v-1.4753h-2.6627v-19.28l4.0723 3.9679zm-9.763-18.3135h4.1245v10.7337l-4.1245-4.0187v-6.715zm4.1767 33.5747H6.7349V16.5999L19.474 4.1366l12.7912 12.4633v20.7044h.0522z" fill="#81B3D2"/>
    <path d="M15.5582 15.8369c0 2.1874 1.8273 3.9679 4.0201 3.9679 2.245 0 4.0723-1.7805 4.0723-3.9679 0-2.1875-1.8273-3.9171-4.0723-3.9171s-4.0201 1.7296-4.0201 3.9171zm4.0201-2.5436c1.4096 0 2.6105 1.1192 2.6105 2.5436 0 1.3735-1.1486 2.5435-2.6105 2.5435-1.4096 0-2.6104-1.1192-2.6104-2.5435 0-1.3736 1.2008-2.5436 2.6104-2.5436zM10.3895 23.0613H8.8232v1.9839h1.5663v-1.9839zM13.4698 23.0613h-1.5662v1.9839h1.5662v-1.9839zM10.3895 26.1128H8.8232v1.984h1.5663v-1.984zM13.4698 26.1128h-1.5662v1.984h1.5662v-1.984zM27.0443 23.0613H25.478v1.9839h1.5663v-1.9839zM30.1769 23.0613h-1.5663v1.9839h1.5663v-1.9839zM27.0443 26.1128H25.478v1.984h1.5663v-1.984zM30.1769 26.1128h-1.5663v1.984h1.5663v-1.984z" fill="#81B3D2"/>
  </symbol>
  <symbol viewBox="0 0 40 40" id="icon-burger">
    <path d="M37.7428 26.3004H2.2572C.9974 26.3004 0 27.3135 0 28.4785v1.7729c0 1.165.9974 2.1274 2.2572 2.1274h.525v.5065c0 2.7859 2.3622 5.0147 5.1968 5.0147h24.042c2.8871 0 5.1968-2.2794 5.1968-5.0147v-.5065h.525c1.2073 0 2.2572-.9624 2.2572-2.1781v-1.7729c0-1.1143-.9974-2.1274-2.2572-2.1274zm-2.0473 6.5849c0 1.9248-1.6273 3.4951-3.622 3.4951H7.9265c-1.9947 0-3.622-1.5703-3.622-3.4951v-.5065h31.391v.5065zm2.7297-2.6846c0 .3546-.315.6585-.6824.6585H2.2572c-.3674 0-.6824-.3039-.6824-.6585v-1.7729c0-.3039.315-.6078.6824-.6078h35.5381c.3674 0 .6824.3039.6824.6585v1.7222h-.0525zM8.504 22.1973l2.8346 2.0261 2.8871-2.0261 2.8872 2.0261L20 22.1973l2.8347 2.0261 2.8871-2.0261 2.8871 2.0261 2.8872-2.0261 2.8871 2.0261 3.3071-2.3807-.8924-1.2157-2.4147 1.6716-2.8871-2.0261-2.8872 2.0261-2.8871-2.0261-2.8871 2.0261L20 20.2725l-2.8871 2.0261-2.8872-2.0261-2.8871 2.0261-2.8346-2.0261-2.8872 2.0261-2.4147-1.6716-.9449 1.2157 3.3596 2.3807 2.8872-2.0261zM37.2179 18.7531c0-.3039.0525-1.317 0-1.5196C36.8504 9.3316 29.2913 3 20 3S3.0971 9.3316 2.7297 17.2335v1.5196h34.4882zM20 4.5196c8.399 0 15.3281 5.6731 15.6431 12.7139H4.3045C4.6719 10.1927 11.601 4.5195 20 4.5195z" fill="#81B3D2"/>
    <path d="M20 11.6111c.5798 0 1.0499-.4536 1.0499-1.0131 0-.5595-.4701-1.013-1.0499-1.013-.5798 0-1.0499.4535-1.0499 1.013 0 .5595.4701 1.0131 1.0499 1.0131zM15.8005 9.1287c.5798 0 1.0499-.4536 1.0499-1.0131 0-.5595-.4701-1.013-1.0499-1.013-.5798 0-1.0499.4535-1.0499 1.013 0 .5595.4701 1.013 1.0499 1.013zM24.1995 9.1287c.5798 0 1.0498-.4536 1.0498-1.0131 0-.5595-.47-1.013-1.0498-1.013-.5799 0-1.0499.4535-1.0499 1.013 0 .5595.47 1.013 1.0499 1.013z" fill="#81B3D2"/>
  </symbol>
  <symbol viewBox="0 0 40 40" id="icon-gift">
    <path d="M34.5778 12.2058H22.1841c6.908-3.4442 7.4667-5.6222 7.2127-6.8378-.5587-1.9754-2.8444-3.495-4.9778-2.6845-2.7936 1.0636-3.5555 5.217-4.3174 8.2054-.9651-3.039-1.8794-6.8885-4.0635-8.8639-.6095-.5571-1.5238-1.1143-2.8952-1.013-2.0318.2026-4.927 2.6845-3.708 5.4703 1.1175 2.6845 4.8254 4.4066 7.3143 5.7742H5.4222c-.8127 0-1.4222.6584-1.4222 1.4182v5.6728c0 .8105.6603 1.4183 1.4222 1.4183h.1524V39H34.527V20.7658h.0508c.8127 0 1.4222-.6585 1.4222-1.4183v-5.6728c0-.8104-.6603-1.4689-1.4222-1.4689zm-9.3461-8.256c1.0667-.152 2.4889.6584 2.6413 1.6208.2032 1.3675-1.6762 2.6338-2.5397 3.191-1.2698.861-2.4889 1.3169-3.6571 2.026.4063-1.874 1.2698-6.534 3.5555-6.8378zM13.7524 8.9135c-1.1175-.7598-3.2508-2.2286-3.2-3.9.0508-1.8235 2.8952-3.2924 4.419-1.9248 1.9302 1.6715 2.8445 5.5716 3.5556 8.3067-1.6254-.8104-3.1492-1.4182-4.7746-2.4819zm2.9968 28.567H7.0476V20.7658h9.7016v16.7147zm0-18.2343H5.5238v-5.5209h11.2254v5.5209zm5.0794 18.2343h-3.6064V13.7253h3.6064v23.7552zm11.1746 0h-9.6508V20.7658h9.7016v16.7147h-.0508zm1.473-18.2343H23.3524v-5.5209h11.1238v5.5209z" fill="#81B3D2"/>
  </symbol>
  <symbol viewBox="0 0 24 24" id="icon-vk">
    <path d="M23.45 5.948c.166-.546 0-.948-.795-.948H20.03c-.668 0-.976.347-1.143.73 0 0-1.335 3.196-3.226 5.272-.612.602-.89.793-1.224.793-.167 0-.418-.191-.418-.738V5.948c0-.656-.184-.948-.74-.948H9.151c-.417 0-.668.304-.668.593 0 .621.946.765 1.043 2.513v3.798c0 .833-.153.984-.487.984-.89 0-3.055-3.211-4.34-6.885C4.45 5.288 4.198 5 3.527 5H.9c-.75 0-.9.347-.9.73 0 .682.89 4.07 4.145 8.551C6.315 17.341 9.37 19 12.153 19c1.669 0 1.875-.368 1.875-1.003v-2.313c0-.737.158-.884.687-.884.39 0 1.057.192 2.615 1.667C19.11 18.216 19.403 19 20.405 19h2.625c.75 0 1.126-.368.91-1.096-.238-.724-1.088-1.775-2.215-3.022-.612-.71-1.53-1.475-1.809-1.858-.389-.491-.278-.71 0-1.147 0 0 3.2-4.426 3.533-5.929h.001z"/>
  </symbol>
  <symbol viewBox="0 0 24 24" id="icon-telegram">
    <path d="M22.4391 4.6223L19.2704 19.566c-.2393 1.0545-.8625 1.317-1.7483.8205l-4.8285-3.558-2.3295 2.241c-.258.258-.4732.4733-.9705.4733l.3473-4.917L18.6891 6.54c.3893-.3465-.0847-.5393-.6045-.192L7.0222 13.314l-4.7625-1.491c-1.0358-.3232-1.0546-1.0357.216-1.533l18.6277-7.1767c.8625-.3233 1.617.192 1.3357 1.5097v-.0008z"/>
  </symbol>
  <symbol viewBox="0 0 24 24" id="icon-youtube">
    <path d="M19.1813 5H4.8133C3.3062 5 2 6.3 2 7.8v8.3C2 17.7 3.3062 19 4.8133 19h14.368c1.6076 0 2.8133-1.3 2.8133-2.8V7.8C22.095 6.3 20.7889 5 19.1813 5zM9.0333 15.4V8.6l6.8323 3.4-6.8323 3.4z"/>
  </symbol>
  <symbol viewBox="0 0 27 35" id="icon-academy">
    <path d="M13.6 0h-.1L0 1.4v24.7l13.5 8 13.4-8V1.4L13.6 0zM25 12.1L13.5 5.3v-.1h-.1l-.1-.1v.1L1.9 12.1v-9l11.5-1.2L25 3.1v9zM13.4 6.8l11.5 6.7-4.5 2.6-7.1-4.2v1.4l5.9 3.5-.9.5-5-3v1.4l3.8 2.3-.8.5-3-1.8v1.4l1.9 1.1-1.8 1.1L2 13.6l11.4-6.8zM1.9 15.1l11.4 6.8v1l-7.9-4.7v1.4l8 4.8v1.1l-8-4.7v1.4l8 4.8 8.1-4.9v-5.2l3.4-2v10l-11.5 6.9L1.9 25v-9.9z"/>
  </symbol>
  <symbol viewBox="0 0 18 18" id="icon-phone">
    <path d="M3.6 7.8c1.4 2.8 3.8 5.1 6.6 6.6l2.2-2.2c.3-.3.7-.4 1-.2 1.1.4 2.3.6 3.6.6.6 0 1 .4 1 1V17c0 .6-.4 1-1 1C7.6 18 0 10.4 0 1c0-.6.4-1 1-1h3.5c.6 0 1 .4 1 1 0 1.2.2 2.4.6 3.6.1.3 0 .7-.2 1L3.6 7.8z"/>
  </symbol>
  <symbol viewBox="0 0 18 18" id="icon-mail">
    <path d="M9 11c-.3 0-.5-.1-1-.3L1 7v7c0 .5.5 1 1 1h14c.5 0 1-.5 1-1V7l-7 3.7c-.5.2-.7.3-1 .3zm7-8H2c-.5 0-1 .5-1 1v.8L9 9l8-4.2V4c0-.5-.5-1-1-1z"/>
  </symbol>
  <symbol viewBox="0 0 23 21" id="icon-like">
    <path d="M12.9636 3.78l-.6272 3.045-.6273 2.625h9.0954v2.205L17.7727 18.9h-9.409V8.4l4.5999-4.62zM2.0909 10.5v8.4-8.4zM13.8 0L6.9 6.93c-.4182.315-.6273.84-.6273 1.47v10.5c0 1.155.941 2.1 2.091 2.1h9.409c.8364 0 1.5682-.525 1.8818-1.26l3.1364-7.455c.1046-.21.1046-.525.1046-.735v-2.1H23c0-1.155-.9409-2.1-2.0909-2.1h-6.5864l1.0455-4.83v-.315c0-.42-.2091-.84-.4182-1.155L13.8 0zM4.1818 8.4H0V21h4.1818V8.4z"/>
  </symbol>
</svg>
